<?xml version="1.0" encoding="UTF-8"?>
<svg xmlns="http://www.w3.org/2000/svg" xmlns:xlink="http://www.w3.org/1999/xlink" width="80px" height="80px" viewBox="0 0 80 80" version="1.1">
<g id="surface1">
<path style=" stroke:none;fill-rule:nonzero;fill:rgb(100%,0%,16.078431%);fill-opacity:1;" d="M 59.914062 28.441406 C 58.433594 29.113281 56.855469 29.558594 55.234375 29.757812 C 56.949219 28.699219 58.21875 27.054688 58.820312 25.128906 C 57.222656 26.101562 55.46875 26.789062 53.636719 27.160156 C 52.882812 26.328125 51.964844 25.664062 50.941406 25.207031 C 49.914062 24.753906 48.804688 24.519531 47.683594 24.519531 C 45.492188 24.546875 43.402344 25.445312 41.875 27.011719 C 40.347656 28.582031 39.503906 30.691406 39.53125 32.882812 C 39.527344 33.523438 39.59375 34.164062 39.730469 34.792969 C 36.46875 34.613281 33.285156 33.738281 30.386719 32.230469 C 27.488281 30.722656 24.945312 28.617188 22.929688 26.046875 C 21.890625 27.890625 21.570312 30.054688 22.035156 32.121094 C 22.503906 34.183594 23.71875 36 25.453125 37.21875 C 24.152344 37.171875 22.886719 36.8125 21.757812 36.164062 L 21.757812 36.269531 C 21.742188 38.179688 22.382812 40.035156 23.574219 41.53125 C 24.765625 43.023438 26.433594 44.058594 28.296875 44.46875 C 27.597656 44.664062 26.878906 44.761719 26.148438 44.765625 C 25.636719 44.765625 25.121094 44.710938 24.617188 44.609375 C 25.117188 46.253906 26.121094 47.699219 27.484375 48.742188 C 28.855469 49.785156 30.515625 50.375 32.230469 50.421875 C 29.363281 52.738281 25.789062 54 22.105469 53.996094 C 21.453125 53.996094 20.804688 53.957031 20.15625 53.882812 C 23.867188 56.339844 28.214844 57.648438 32.660156 57.648438 C 47.660156 57.648438 55.859375 44.898438 55.859375 33.839844 L 55.835938 32.757812 C 57.445312 31.574219 58.828125 30.113281 59.914062 28.441406 Z M 59.914062 28.441406 "/>
<path style="fill:none;stroke-width:0.991;stroke-linecap:butt;stroke-linejoin:miter;stroke:rgb(100%,0%,16.078431%);stroke-opacity:1;stroke-miterlimit:10;" d="M 39.505859 20 C 39.505859 30.771484 30.771484 39.505859 20 39.505859 C 9.228516 39.505859 0.494141 30.771484 0.494141 20 C 0.494141 9.228516 9.228516 0.494141 20 0.494141 C 30.771484 0.494141 39.505859 9.228516 39.505859 20 Z M 39.505859 20 " transform="matrix(2,0,0,2,0,0)"/>
</g>
</svg>
