<?xml version="1.0" encoding="UTF-8"?>
<svg xmlns="http://www.w3.org/2000/svg" xmlns:xlink="http://www.w3.org/1999/xlink" width="80px" height="80px" viewBox="0 0 80 80" version="1.1">
<g id="surface1">
<path style="fill:none;stroke-width:0.991;stroke-linecap:butt;stroke-linejoin:miter;stroke:rgb(100%,0%,16.078431%);stroke-opacity:1;stroke-miterlimit:10;" d="M 39.505859 20 C 39.505859 30.771484 30.771484 39.505859 20 39.505859 C 9.228516 39.505859 0.494141 30.771484 0.494141 20 C 0.494141 9.228516 9.228516 0.494141 20 0.494141 C 30.771484 0.494141 39.505859 9.228516 39.505859 20 Z M 39.505859 20 " transform="matrix(2,0,0,2,0,0)"/>
<path style=" stroke:none;fill-rule:nonzero;fill:rgb(100%,0%,16.078431%);fill-opacity:1;" d="M 51.640625 46.929688 C 50.921875 46.929688 50.5625 47.488281 50.5625 48.601562 L 50.5625 49.734375 L 52.71875 49.734375 L 52.71875 48.601562 C 52.71875 47.484375 52.359375 46.929688 51.640625 46.929688 Z M 51.640625 46.929688 "/>
<path style=" stroke:none;fill-rule:nonzero;fill:rgb(100%,0%,16.078431%);fill-opacity:1;" d="M 56.890625 40.757812 C 56.699219 39.820312 56.21875 38.96875 55.511719 38.324219 C 54.839844 37.6875 53.976562 37.28125 53.058594 37.171875 C 44.210938 36.515625 35.328125 36.515625 26.484375 37.171875 C 25.558594 37.277344 24.691406 37.683594 24.015625 38.324219 C 23.316406 38.976562 22.832031 39.824219 22.628906 40.757812 C 22.136719 43.597656 21.929688 46.476562 22.003906 49.359375 C 21.921875 52.238281 22.128906 55.117188 22.628906 57.957031 C 22.816406 58.894531 23.300781 59.746094 24.003906 60.394531 C 24.675781 61.03125 25.539062 61.429688 26.460938 61.523438 C 35.316406 62.214844 44.207031 62.214844 53.0625 61.523438 C 53.980469 61.429688 54.84375 61.035156 55.507812 60.394531 C 56.210938 59.742188 56.699219 58.894531 56.90625 57.957031 C 57.394531 55.117188 57.605469 52.238281 57.527344 49.359375 C 57.605469 46.476562 57.390625 43.597656 56.886719 40.757812 Z M 32.136719 43.242188 L 29.574219 43.242188 L 29.574219 57.242188 L 27.175781 57.242188 L 27.175781 43.242188 L 24.65625 43.242188 L 24.65625 40.933594 L 32.132812 40.933594 Z M 38.605469 57.242188 L 36.472656 57.242188 L 36.472656 55.914062 C 36.195312 56.320312 35.835938 56.667969 35.414062 56.925781 C 34.992188 57.183594 34.519531 57.351562 34.03125 57.410156 C 33.730469 57.449219 33.425781 57.375 33.171875 57.210938 C 32.914062 57.042969 32.730469 56.792969 32.640625 56.503906 C 32.488281 55.914062 32.421875 55.308594 32.441406 54.703125 L 32.441406 45.089844 L 34.574219 45.089844 L 34.574219 54.039062 C 34.5625 54.324219 34.574219 54.613281 34.597656 54.898438 C 34.644531 55.242188 34.8125 55.414062 35.101562 55.414062 C 35.53125 55.414062 35.988281 55.074219 36.464844 54.382812 L 36.464844 45.089844 L 38.597656 45.089844 Z M 46.753906 53.601562 C 46.789062 54.429688 46.71875 55.257812 46.539062 56.0625 C 46.460938 56.453125 46.25 56.804688 45.9375 57.050781 C 45.625 57.300781 45.234375 57.429688 44.835938 57.410156 C 44.386719 57.371094 43.953125 57.230469 43.566406 56.996094 C 43.179688 56.761719 42.851562 56.441406 42.605469 56.0625 L 42.605469 57.242188 L 40.480469 57.242188 L 40.480469 40.941406 L 42.609375 40.941406 L 42.609375 46.273438 C 42.851562 45.894531 43.179688 45.574219 43.566406 45.347656 C 43.953125 45.117188 44.386719 44.980469 44.839844 44.945312 C 45.238281 44.9375 45.632812 45.066406 45.945312 45.320312 C 46.257812 45.574219 46.46875 45.929688 46.539062 46.324219 C 46.71875 47.125 46.792969 47.941406 46.753906 48.757812 Z M 54.851562 51.585938 L 50.5625 51.585938 L 50.5625 53.726562 C 50.5625 54.855469 50.929688 55.421875 51.664062 55.421875 C 51.90625 55.429688 52.144531 55.34375 52.324219 55.179688 C 52.503906 55.011719 52.609375 54.78125 52.621094 54.539062 C 52.667969 54.039062 52.683594 53.539062 52.671875 53.039062 L 54.851562 53.039062 L 54.851562 53.359375 C 54.867188 53.835938 54.851562 54.308594 54.800781 54.785156 C 54.742188 55.261719 54.570312 55.714844 54.296875 56.113281 C 54.019531 56.535156 53.632812 56.878906 53.179688 57.109375 C 52.726562 57.339844 52.21875 57.441406 51.710938 57.414062 C 51.210938 57.433594 50.710938 57.328125 50.261719 57.113281 C 49.808594 56.894531 49.417969 56.566406 49.121094 56.160156 C 48.59375 55.308594 48.351562 54.308594 48.429688 53.308594 L 48.429688 49.054688 C 48.351562 48.058594 48.585938 47.058594 49.097656 46.203125 C 49.398438 45.8125 49.785156 45.496094 50.230469 45.28125 C 50.671875 45.0625 51.15625 44.949219 51.648438 44.949219 C 52.144531 44.949219 52.628906 45.0625 53.070312 45.28125 C 53.515625 45.496094 53.902344 45.8125 54.203125 46.203125 C 54.699219 47.066406 54.925781 48.0625 54.851562 49.054688 Z M 54.851562 51.585938 "/>
<path style=" stroke:none;fill-rule:nonzero;fill:rgb(100%,0%,16.078431%);fill-opacity:1;" d="M 43.6875 46.929688 C 43.476562 46.941406 43.277344 46.996094 43.09375 47.089844 C 42.90625 47.183594 42.742188 47.308594 42.609375 47.46875 L 42.609375 54.871094 C 42.742188 55.03125 42.90625 55.15625 43.09375 55.25 C 43.277344 55.34375 43.480469 55.398438 43.6875 55.410156 C 44.308594 55.410156 44.621094 54.863281 44.621094 53.765625 L 44.621094 48.574219 C 44.621094 47.476562 44.308594 46.929688 43.6875 46.929688 Z M 30.753906 27.800781 L 30.753906 34.464844 L 33.152344 34.464844 L 33.152344 27.800781 L 36.050781 18 L 33.605469 18 L 31.976562 24.464844 L 30.277344 18 L 27.734375 18 C 28.183594 19.375 28.703125 20.910156 29.292969 22.601562 C 29.890625 24.300781 30.375 26.039062 30.753906 27.800781 Z M 39.253906 34.636719 C 39.746094 34.660156 40.238281 34.558594 40.6875 34.339844 C 41.128906 34.121094 41.511719 33.792969 41.792969 33.382812 C 42.308594 32.507812 42.542969 31.496094 42.464844 30.484375 L 42.464844 26.179688 C 42.542969 25.175781 42.308594 24.171875 41.792969 23.304688 C 41.496094 22.914062 41.117188 22.597656 40.679688 22.378906 C 40.238281 22.160156 39.757812 22.050781 39.265625 22.050781 C 38.777344 22.050781 38.292969 22.160156 37.855469 22.378906 C 37.414062 22.597656 37.035156 22.914062 36.738281 23.304688 C 36.222656 24.171875 35.988281 25.175781 36.066406 26.179688 L 36.066406 30.484375 C 35.992188 31.496094 36.226562 32.507812 36.738281 33.382812 C 37.019531 33.785156 37.398438 34.113281 37.835938 34.332031 C 38.277344 34.550781 38.761719 34.65625 39.253906 34.636719 Z M 38.222656 25.734375 C 38.222656 24.605469 38.566406 24.039062 39.253906 24.039062 C 39.9375 24.039062 40.28125 24.605469 40.28125 25.734375 L 40.28125 30.898438 C 40.28125 32.046875 39.9375 32.621094 39.253906 32.621094 C 38.566406 32.621094 38.222656 32.046875 38.222656 30.898438 Z M 45.84375 34.636719 C 46.34375 34.578125 46.820312 34.410156 47.246094 34.148438 C 47.671875 33.882812 48.035156 33.53125 48.308594 33.113281 L 48.308594 34.464844 L 50.488281 34.464844 L 50.488281 22.199219 L 48.308594 22.199219 L 48.308594 31.566406 C 47.828125 32.269531 47.375 32.621094 46.945312 32.621094 C 46.65625 32.621094 46.488281 32.445312 46.441406 32.082031 C 46.414062 31.796875 46.40625 31.507812 46.417969 31.222656 L 46.417969 22.199219 L 44.238281 22.199219 L 44.238281 31.882812 C 44.214844 32.503906 44.28125 33.125 44.4375 33.726562 C 44.53125 34.019531 44.722656 34.265625 44.976562 34.433594 C 45.234375 34.597656 45.539062 34.671875 45.84375 34.636719 Z M 45.84375 34.636719 "/>
</g>
</svg>
