<?xml version="1.0" encoding="UTF-8"?>
<svg xmlns="http://www.w3.org/2000/svg" xmlns:xlink="http://www.w3.org/1999/xlink" width="80px" height="80px" viewBox="0 0 80 80" version="1.1">
<g id="surface1">
<path style="fill:none;stroke-width:0.991;stroke-linecap:butt;stroke-linejoin:miter;stroke:rgb(100%,0%,16.078431%);stroke-opacity:1;stroke-miterlimit:10;" d="M 39.505859 20 C 39.505859 30.771484 30.771484 39.505859 20 39.505859 C 9.228516 39.505859 0.494141 30.771484 0.494141 20 C 0.494141 9.228516 9.228516 0.494141 20 0.494141 C 30.771484 0.494141 39.505859 9.228516 39.505859 20 Z M 39.505859 20 " transform="matrix(2,0,0,2,0,0)"/>
<path style=" stroke:none;fill-rule:nonzero;fill:rgb(100%,0%,16.078431%);fill-opacity:1;" d="M 40 21.964844 C 45.875 21.964844 46.570312 21.984375 48.890625 22.09375 C 51.035156 22.191406 52.199219 22.546875 52.976562 22.851562 C 54.003906 23.25 54.734375 23.726562 55.503906 24.496094 C 56.273438 25.265625 56.753906 25.996094 57.148438 27.023438 C 57.449219 27.800781 57.808594 28.964844 57.90625 31.109375 C 58.015625 33.429688 58.035156 34.125 58.035156 40 C 58.035156 45.875 58.015625 46.570312 57.90625 48.890625 C 57.808594 51.035156 57.453125 52.199219 57.148438 52.976562 C 56.75 54.003906 56.273438 54.734375 55.503906 55.503906 C 54.734375 56.273438 54.003906 56.753906 52.976562 57.148438 C 52.199219 57.449219 51.035156 57.808594 48.890625 57.90625 C 46.570312 58.015625 45.875 58.035156 40 58.035156 C 34.125 58.035156 33.429688 58.015625 31.109375 57.90625 C 28.964844 57.808594 27.800781 57.453125 27.023438 57.148438 C 25.996094 56.75 25.265625 56.273438 24.496094 55.503906 C 23.726562 54.734375 23.246094 54.003906 22.851562 52.976562 C 22.550781 52.199219 22.191406 51.035156 22.09375 48.890625 C 21.984375 46.570312 21.964844 45.875 21.964844 40 C 21.964844 34.125 21.984375 33.429688 22.09375 31.109375 C 22.191406 28.964844 22.546875 27.800781 22.851562 27.023438 C 23.25 25.996094 23.726562 25.265625 24.496094 24.496094 C 25.265625 23.726562 25.996094 23.246094 27.023438 22.851562 C 27.800781 22.550781 28.964844 22.191406 31.109375 22.09375 C 33.429688 21.984375 34.125 21.964844 40 21.964844 Z M 40 18 C 34.023438 18 33.277344 18.027344 30.929688 18.132812 C 28.589844 18.238281 26.988281 18.613281 25.589844 19.15625 C 24.140625 19.714844 22.914062 20.46875 21.691406 21.691406 C 20.46875 22.914062 19.71875 24.140625 19.152344 25.589844 C 18.613281 26.988281 18.238281 28.589844 18.132812 30.929688 C 18.023438 33.277344 18 34.027344 18 40 C 18 45.976562 18.027344 46.722656 18.132812 49.070312 C 18.238281 51.410156 18.613281 53.011719 19.152344 54.410156 C 19.71875 55.859375 20.46875 57.085938 21.695312 58.308594 C 22.914062 59.53125 24.140625 60.28125 25.589844 60.84375 C 26.988281 61.390625 28.589844 61.761719 30.929688 61.867188 C 33.277344 61.972656 34.023438 62 40 62 C 45.972656 62 46.722656 61.972656 49.070312 61.867188 C 51.410156 61.761719 53.011719 61.386719 54.410156 60.84375 C 55.859375 60.285156 57.085938 59.53125 58.308594 58.308594 C 59.53125 57.085938 60.28125 55.859375 60.84375 54.410156 C 61.386719 53.011719 61.761719 51.410156 61.867188 49.070312 C 61.972656 46.722656 62 45.972656 62 40 C 62 34.027344 61.972656 33.277344 61.867188 30.929688 C 61.761719 28.589844 61.386719 26.988281 60.84375 25.589844 C 60.285156 24.140625 59.53125 22.914062 58.308594 21.691406 C 57.085938 20.46875 55.859375 19.71875 54.410156 19.15625 C 53.011719 18.613281 51.410156 18.238281 49.070312 18.132812 C 46.722656 18.027344 45.972656 18 40 18 Z M 40 28.703125 C 33.761719 28.703125 28.703125 33.761719 28.703125 40 C 28.703125 46.238281 33.761719 51.296875 40 51.296875 C 46.238281 51.296875 51.296875 46.238281 51.296875 40 C 51.296875 33.761719 46.238281 28.703125 40 28.703125 Z M 40 47.335938 C 35.949219 47.335938 32.664062 44.050781 32.664062 40 C 32.664062 35.949219 35.949219 32.664062 40 32.664062 C 44.050781 32.664062 47.335938 35.949219 47.335938 40 C 47.335938 44.050781 44.050781 47.335938 40 47.335938 Z M 54.382812 28.257812 C 54.382812 29.714844 53.203125 30.894531 51.742188 30.894531 C 50.285156 30.894531 49.105469 29.714844 49.105469 28.257812 C 49.105469 26.796875 50.285156 25.617188 51.742188 25.617188 C 53.203125 25.617188 54.382812 26.796875 54.382812 28.257812 Z M 54.382812 28.257812 "/>
</g>
</svg>
