<?xml version="1.0" encoding="UTF-8"?>
<svg xmlns="http://www.w3.org/2000/svg" xmlns:xlink="http://www.w3.org/1999/xlink" width="80px" height="80px" viewBox="0 0 80 80" version="1.1">
<g id="surface1">
<path style="fill:none;stroke-width:0.991;stroke-linecap:butt;stroke-linejoin:miter;stroke:rgb(100%,0%,16.078431%);stroke-opacity:1;stroke-miterlimit:10;" d="M 39.505859 20 C 39.505859 30.771484 30.771484 39.505859 20 39.505859 C 9.228516 39.505859 0.494141 30.771484 0.494141 20 C 0.494141 9.228516 9.228516 0.494141 20 0.494141 C 30.771484 0.494141 39.505859 9.228516 39.505859 20 Z M 39.505859 20 " transform="matrix(2,0,0,2,0,0)"/>
<path style=" stroke:none;fill-rule:nonzero;fill:rgb(100%,0%,16.078431%);fill-opacity:1;" d="M 35.679688 29.246094 L 35.679688 34.394531 L 32 34.394531 L 32 40.691406 L 35.679688 40.691406 L 35.679688 59.398438 L 43.226562 59.398438 L 43.226562 40.691406 L 48.292969 40.691406 C 48.292969 40.691406 48.769531 37.671875 48.996094 34.371094 L 43.257812 34.371094 L 43.257812 30.066406 C 43.320312 29.664062 43.515625 29.300781 43.8125 29.027344 C 44.109375 28.753906 44.488281 28.585938 44.890625 28.554688 L 49.007812 28.554688 L 49.007812 22 L 43.40625 22 C 35.476562 22.007812 35.679688 28.304688 35.679688 29.246094 Z M 35.679688 29.246094 "/>
</g>
</svg>
